<mxfile host="app.diagrams.net" modified="2020-07-29T03:52:05.442Z" agent="5.0 (Macintosh; Intel Mac OS X 10_15_5) AppleWebKit/537.36 (KHTML, like Gecko) Chrome/84.0.4147.89 Safari/537.36" etag="60g8kG3HtUMKmGGl2BT9" version="13.5.4" type="github">
  <diagram id="Ba00OhwOwx6z6x_K_HQ-" name="Page-1">
    <mxGraphModel dx="746" dy="971" grid="1" gridSize="10" guides="1" tooltips="1" connect="1" arrows="1" fold="1" page="1" pageScale="1" pageWidth="827" pageHeight="1169" math="0" shadow="0">
      <root>
        <mxCell id="0" />
        <mxCell id="1" parent="0" />
        <mxCell id="1T-fKAIyL_KaxymxcAVF-1" value="" style="rounded=0;whiteSpace=wrap;html=1;fillColor=#bac8d3;strokeColor=#23445d;" vertex="1" parent="1">
          <mxGeometry x="240" y="250" width="320" height="60" as="geometry" />
        </mxCell>
        <mxCell id="1T-fKAIyL_KaxymxcAVF-6" style="edgeStyle=orthogonalEdgeStyle;rounded=0;orthogonalLoop=1;jettySize=auto;html=1;entryX=0;entryY=0.5;entryDx=0;entryDy=0;" edge="1" parent="1" source="1T-fKAIyL_KaxymxcAVF-2" target="1T-fKAIyL_KaxymxcAVF-3">
          <mxGeometry relative="1" as="geometry" />
        </mxCell>
        <mxCell id="1T-fKAIyL_KaxymxcAVF-2" value="P9" style="ellipse;whiteSpace=wrap;html=1;aspect=fixed;fillColor=#e1d5e7;strokeColor=#9673a6;" vertex="1" parent="1">
          <mxGeometry x="270" y="255" width="50" height="50" as="geometry" />
        </mxCell>
        <mxCell id="1T-fKAIyL_KaxymxcAVF-7" style="edgeStyle=orthogonalEdgeStyle;rounded=0;orthogonalLoop=1;jettySize=auto;html=1;entryX=0;entryY=0.5;entryDx=0;entryDy=0;" edge="1" parent="1" source="1T-fKAIyL_KaxymxcAVF-3" target="1T-fKAIyL_KaxymxcAVF-4">
          <mxGeometry relative="1" as="geometry" />
        </mxCell>
        <mxCell id="1T-fKAIyL_KaxymxcAVF-3" value="P7" style="ellipse;whiteSpace=wrap;html=1;aspect=fixed;fillColor=#e1d5e7;strokeColor=#9673a6;" vertex="1" parent="1">
          <mxGeometry x="340" y="255" width="50" height="50" as="geometry" />
        </mxCell>
        <mxCell id="1T-fKAIyL_KaxymxcAVF-8" style="edgeStyle=orthogonalEdgeStyle;rounded=0;orthogonalLoop=1;jettySize=auto;html=1;entryX=0;entryY=0.5;entryDx=0;entryDy=0;" edge="1" parent="1" source="1T-fKAIyL_KaxymxcAVF-4" target="1T-fKAIyL_KaxymxcAVF-5">
          <mxGeometry relative="1" as="geometry" />
        </mxCell>
        <mxCell id="1T-fKAIyL_KaxymxcAVF-4" value="P3" style="ellipse;whiteSpace=wrap;html=1;aspect=fixed;fillColor=#e1d5e7;strokeColor=#9673a6;" vertex="1" parent="1">
          <mxGeometry x="410" y="255" width="50" height="50" as="geometry" />
        </mxCell>
        <mxCell id="1T-fKAIyL_KaxymxcAVF-5" value="P1" style="ellipse;whiteSpace=wrap;html=1;aspect=fixed;fillColor=#e1d5e7;strokeColor=#9673a6;" vertex="1" parent="1">
          <mxGeometry x="480" y="255" width="50" height="50" as="geometry" />
        </mxCell>
        <mxCell id="1T-fKAIyL_KaxymxcAVF-10" style="edgeStyle=orthogonalEdgeStyle;rounded=0;orthogonalLoop=1;jettySize=auto;html=1;entryX=0;entryY=0.5;entryDx=0;entryDy=0;" edge="1" parent="1" source="1T-fKAIyL_KaxymxcAVF-9" target="1T-fKAIyL_KaxymxcAVF-2">
          <mxGeometry relative="1" as="geometry">
            <mxPoint x="291" y="400" as="targetPoint" />
            <Array as="points">
              <mxPoint x="620" y="330" />
              <mxPoint x="250" y="330" />
              <mxPoint x="250" y="280" />
            </Array>
          </mxGeometry>
        </mxCell>
        <mxCell id="1T-fKAIyL_KaxymxcAVF-9" value="" style="rounded=0;whiteSpace=wrap;html=1;fillColor=#bac8d3;strokeColor=#23445d;" vertex="1" parent="1">
          <mxGeometry x="590" y="250" width="60" height="60" as="geometry" />
        </mxCell>
        <mxCell id="1T-fKAIyL_KaxymxcAVF-11" value="" style="endArrow=classic;html=1;" edge="1" parent="1">
          <mxGeometry width="50" height="50" relative="1" as="geometry">
            <mxPoint x="180" y="280" as="sourcePoint" />
            <mxPoint x="230" y="280" as="targetPoint" />
          </mxGeometry>
        </mxCell>
        <mxCell id="1T-fKAIyL_KaxymxcAVF-13" value="Preempted" style="text;html=1;align=center;verticalAlign=middle;resizable=0;points=[];autosize=1;" vertex="1" parent="1">
          <mxGeometry x="580" y="330" width="70" height="20" as="geometry" />
        </mxCell>
        <mxCell id="1T-fKAIyL_KaxymxcAVF-14" value="" style="rounded=0;whiteSpace=wrap;html=1;fillColor=#bac8d3;strokeColor=#23445d;" vertex="1" parent="1">
          <mxGeometry x="239" y="360" width="320" height="60" as="geometry" />
        </mxCell>
        <mxCell id="1T-fKAIyL_KaxymxcAVF-15" style="edgeStyle=orthogonalEdgeStyle;rounded=0;orthogonalLoop=1;jettySize=auto;html=1;entryX=0;entryY=0.5;entryDx=0;entryDy=0;" edge="1" parent="1" source="1T-fKAIyL_KaxymxcAVF-16" target="1T-fKAIyL_KaxymxcAVF-18">
          <mxGeometry relative="1" as="geometry" />
        </mxCell>
        <mxCell id="1T-fKAIyL_KaxymxcAVF-16" value="P" style="ellipse;whiteSpace=wrap;html=1;aspect=fixed;fillColor=#e1d5e7;strokeColor=#9673a6;" vertex="1" parent="1">
          <mxGeometry x="269" y="365" width="50" height="50" as="geometry" />
        </mxCell>
        <mxCell id="1T-fKAIyL_KaxymxcAVF-17" style="edgeStyle=orthogonalEdgeStyle;rounded=0;orthogonalLoop=1;jettySize=auto;html=1;entryX=0;entryY=0.5;entryDx=0;entryDy=0;" edge="1" parent="1" source="1T-fKAIyL_KaxymxcAVF-18" target="1T-fKAIyL_KaxymxcAVF-20">
          <mxGeometry relative="1" as="geometry" />
        </mxCell>
        <mxCell id="1T-fKAIyL_KaxymxcAVF-18" value="P" style="ellipse;whiteSpace=wrap;html=1;aspect=fixed;fillColor=#e1d5e7;strokeColor=#9673a6;" vertex="1" parent="1">
          <mxGeometry x="339" y="365" width="50" height="50" as="geometry" />
        </mxCell>
        <mxCell id="1T-fKAIyL_KaxymxcAVF-19" style="edgeStyle=orthogonalEdgeStyle;rounded=0;orthogonalLoop=1;jettySize=auto;html=1;entryX=0;entryY=0.5;entryDx=0;entryDy=0;" edge="1" parent="1" source="1T-fKAIyL_KaxymxcAVF-20" target="1T-fKAIyL_KaxymxcAVF-21">
          <mxGeometry relative="1" as="geometry" />
        </mxCell>
        <mxCell id="1T-fKAIyL_KaxymxcAVF-20" value="P" style="ellipse;whiteSpace=wrap;html=1;aspect=fixed;fillColor=#e1d5e7;strokeColor=#9673a6;" vertex="1" parent="1">
          <mxGeometry x="409" y="365" width="50" height="50" as="geometry" />
        </mxCell>
        <mxCell id="1T-fKAIyL_KaxymxcAVF-21" value="P" style="ellipse;whiteSpace=wrap;html=1;aspect=fixed;fillColor=#e1d5e7;strokeColor=#9673a6;" vertex="1" parent="1">
          <mxGeometry x="479" y="365" width="50" height="50" as="geometry" />
        </mxCell>
        <mxCell id="1T-fKAIyL_KaxymxcAVF-22" style="edgeStyle=orthogonalEdgeStyle;rounded=0;orthogonalLoop=1;jettySize=auto;html=1;entryX=0;entryY=0.5;entryDx=0;entryDy=0;" edge="1" parent="1" source="1T-fKAIyL_KaxymxcAVF-23" target="1T-fKAIyL_KaxymxcAVF-16">
          <mxGeometry relative="1" as="geometry">
            <mxPoint x="290" y="510" as="targetPoint" />
            <Array as="points">
              <mxPoint x="619" y="440" />
              <mxPoint x="249" y="440" />
              <mxPoint x="249" y="390" />
            </Array>
          </mxGeometry>
        </mxCell>
        <mxCell id="1T-fKAIyL_KaxymxcAVF-23" value="" style="rounded=0;whiteSpace=wrap;html=1;fillColor=#bac8d3;strokeColor=#23445d;" vertex="1" parent="1">
          <mxGeometry x="589" y="360" width="60" height="60" as="geometry" />
        </mxCell>
        <mxCell id="1T-fKAIyL_KaxymxcAVF-24" value="" style="endArrow=classic;html=1;" edge="1" parent="1">
          <mxGeometry width="50" height="50" relative="1" as="geometry">
            <mxPoint x="179" y="390" as="sourcePoint" />
            <mxPoint x="229" y="390" as="targetPoint" />
          </mxGeometry>
        </mxCell>
        <mxCell id="1T-fKAIyL_KaxymxcAVF-25" value="Preempted" style="text;html=1;align=center;verticalAlign=middle;resizable=0;points=[];autosize=1;" vertex="1" parent="1">
          <mxGeometry x="579" y="440" width="70" height="20" as="geometry" />
        </mxCell>
        <mxCell id="1T-fKAIyL_KaxymxcAVF-26" value="" style="rounded=0;whiteSpace=wrap;html=1;fillColor=#bac8d3;strokeColor=#23445d;" vertex="1" parent="1">
          <mxGeometry x="240" y="470" width="320" height="60" as="geometry" />
        </mxCell>
        <mxCell id="1T-fKAIyL_KaxymxcAVF-27" style="edgeStyle=orthogonalEdgeStyle;rounded=0;orthogonalLoop=1;jettySize=auto;html=1;entryX=0;entryY=0.5;entryDx=0;entryDy=0;" edge="1" parent="1" source="1T-fKAIyL_KaxymxcAVF-28" target="1T-fKAIyL_KaxymxcAVF-30">
          <mxGeometry relative="1" as="geometry" />
        </mxCell>
        <mxCell id="1T-fKAIyL_KaxymxcAVF-28" value="P" style="ellipse;whiteSpace=wrap;html=1;aspect=fixed;fillColor=#e1d5e7;strokeColor=#9673a6;" vertex="1" parent="1">
          <mxGeometry x="270" y="475" width="50" height="50" as="geometry" />
        </mxCell>
        <mxCell id="1T-fKAIyL_KaxymxcAVF-29" style="edgeStyle=orthogonalEdgeStyle;rounded=0;orthogonalLoop=1;jettySize=auto;html=1;entryX=0;entryY=0.5;entryDx=0;entryDy=0;" edge="1" parent="1" source="1T-fKAIyL_KaxymxcAVF-30" target="1T-fKAIyL_KaxymxcAVF-32">
          <mxGeometry relative="1" as="geometry" />
        </mxCell>
        <mxCell id="1T-fKAIyL_KaxymxcAVF-30" value="P" style="ellipse;whiteSpace=wrap;html=1;aspect=fixed;fillColor=#e1d5e7;strokeColor=#9673a6;" vertex="1" parent="1">
          <mxGeometry x="340" y="475" width="50" height="50" as="geometry" />
        </mxCell>
        <mxCell id="1T-fKAIyL_KaxymxcAVF-31" style="edgeStyle=orthogonalEdgeStyle;rounded=0;orthogonalLoop=1;jettySize=auto;html=1;entryX=0;entryY=0.5;entryDx=0;entryDy=0;" edge="1" parent="1" source="1T-fKAIyL_KaxymxcAVF-32" target="1T-fKAIyL_KaxymxcAVF-33">
          <mxGeometry relative="1" as="geometry" />
        </mxCell>
        <mxCell id="1T-fKAIyL_KaxymxcAVF-32" value="P" style="ellipse;whiteSpace=wrap;html=1;aspect=fixed;fillColor=#e1d5e7;strokeColor=#9673a6;" vertex="1" parent="1">
          <mxGeometry x="410" y="475" width="50" height="50" as="geometry" />
        </mxCell>
        <mxCell id="1T-fKAIyL_KaxymxcAVF-33" value="P" style="ellipse;whiteSpace=wrap;html=1;aspect=fixed;fillColor=#e1d5e7;strokeColor=#9673a6;" vertex="1" parent="1">
          <mxGeometry x="480" y="475" width="50" height="50" as="geometry" />
        </mxCell>
        <mxCell id="1T-fKAIyL_KaxymxcAVF-34" style="edgeStyle=orthogonalEdgeStyle;rounded=0;orthogonalLoop=1;jettySize=auto;html=1;entryX=0;entryY=0.5;entryDx=0;entryDy=0;" edge="1" parent="1" source="1T-fKAIyL_KaxymxcAVF-35" target="1T-fKAIyL_KaxymxcAVF-28">
          <mxGeometry relative="1" as="geometry">
            <mxPoint x="291" y="620" as="targetPoint" />
            <Array as="points">
              <mxPoint x="620" y="550" />
              <mxPoint x="250" y="550" />
              <mxPoint x="250" y="500" />
            </Array>
          </mxGeometry>
        </mxCell>
        <mxCell id="1T-fKAIyL_KaxymxcAVF-35" value="" style="rounded=0;whiteSpace=wrap;html=1;fillColor=#bac8d3;strokeColor=#23445d;" vertex="1" parent="1">
          <mxGeometry x="590" y="470" width="60" height="60" as="geometry" />
        </mxCell>
        <mxCell id="1T-fKAIyL_KaxymxcAVF-36" value="" style="endArrow=classic;html=1;" edge="1" parent="1">
          <mxGeometry width="50" height="50" relative="1" as="geometry">
            <mxPoint x="180" y="500" as="sourcePoint" />
            <mxPoint x="230" y="500" as="targetPoint" />
          </mxGeometry>
        </mxCell>
        <mxCell id="1T-fKAIyL_KaxymxcAVF-37" value="Preempted" style="text;html=1;align=center;verticalAlign=middle;resizable=0;points=[];autosize=1;" vertex="1" parent="1">
          <mxGeometry x="580" y="550" width="70" height="20" as="geometry" />
        </mxCell>
        <mxCell id="1T-fKAIyL_KaxymxcAVF-38" value="" style="rounded=0;whiteSpace=wrap;html=1;fillColor=#bac8d3;strokeColor=#23445d;" vertex="1" parent="1">
          <mxGeometry x="240" y="585" width="320" height="60" as="geometry" />
        </mxCell>
        <mxCell id="1T-fKAIyL_KaxymxcAVF-39" style="edgeStyle=orthogonalEdgeStyle;rounded=0;orthogonalLoop=1;jettySize=auto;html=1;entryX=0;entryY=0.5;entryDx=0;entryDy=0;" edge="1" parent="1" source="1T-fKAIyL_KaxymxcAVF-40" target="1T-fKAIyL_KaxymxcAVF-42">
          <mxGeometry relative="1" as="geometry" />
        </mxCell>
        <mxCell id="1T-fKAIyL_KaxymxcAVF-40" value="P" style="ellipse;whiteSpace=wrap;html=1;aspect=fixed;fillColor=#e1d5e7;strokeColor=#9673a6;" vertex="1" parent="1">
          <mxGeometry x="270" y="590" width="50" height="50" as="geometry" />
        </mxCell>
        <mxCell id="1T-fKAIyL_KaxymxcAVF-41" style="edgeStyle=orthogonalEdgeStyle;rounded=0;orthogonalLoop=1;jettySize=auto;html=1;entryX=0;entryY=0.5;entryDx=0;entryDy=0;" edge="1" parent="1" source="1T-fKAIyL_KaxymxcAVF-42" target="1T-fKAIyL_KaxymxcAVF-44">
          <mxGeometry relative="1" as="geometry" />
        </mxCell>
        <mxCell id="1T-fKAIyL_KaxymxcAVF-42" value="P" style="ellipse;whiteSpace=wrap;html=1;aspect=fixed;fillColor=#e1d5e7;strokeColor=#9673a6;" vertex="1" parent="1">
          <mxGeometry x="340" y="590" width="50" height="50" as="geometry" />
        </mxCell>
        <mxCell id="1T-fKAIyL_KaxymxcAVF-43" style="edgeStyle=orthogonalEdgeStyle;rounded=0;orthogonalLoop=1;jettySize=auto;html=1;entryX=0;entryY=0.5;entryDx=0;entryDy=0;" edge="1" parent="1" source="1T-fKAIyL_KaxymxcAVF-44" target="1T-fKAIyL_KaxymxcAVF-45">
          <mxGeometry relative="1" as="geometry" />
        </mxCell>
        <mxCell id="1T-fKAIyL_KaxymxcAVF-44" value="P" style="ellipse;whiteSpace=wrap;html=1;aspect=fixed;fillColor=#e1d5e7;strokeColor=#9673a6;" vertex="1" parent="1">
          <mxGeometry x="410" y="590" width="50" height="50" as="geometry" />
        </mxCell>
        <mxCell id="1T-fKAIyL_KaxymxcAVF-45" value="P" style="ellipse;whiteSpace=wrap;html=1;aspect=fixed;fillColor=#e1d5e7;strokeColor=#9673a6;" vertex="1" parent="1">
          <mxGeometry x="480" y="590" width="50" height="50" as="geometry" />
        </mxCell>
        <mxCell id="1T-fKAIyL_KaxymxcAVF-46" style="edgeStyle=orthogonalEdgeStyle;rounded=0;orthogonalLoop=1;jettySize=auto;html=1;entryX=0;entryY=0.5;entryDx=0;entryDy=0;" edge="1" parent="1" source="1T-fKAIyL_KaxymxcAVF-47" target="1T-fKAIyL_KaxymxcAVF-40">
          <mxGeometry relative="1" as="geometry">
            <mxPoint x="291" y="735" as="targetPoint" />
            <Array as="points">
              <mxPoint x="620" y="665" />
              <mxPoint x="250" y="665" />
              <mxPoint x="250" y="615" />
            </Array>
          </mxGeometry>
        </mxCell>
        <mxCell id="1T-fKAIyL_KaxymxcAVF-47" value="" style="rounded=0;whiteSpace=wrap;html=1;fillColor=#bac8d3;strokeColor=#23445d;" vertex="1" parent="1">
          <mxGeometry x="590" y="585" width="60" height="60" as="geometry" />
        </mxCell>
        <mxCell id="1T-fKAIyL_KaxymxcAVF-48" value="" style="endArrow=classic;html=1;" edge="1" parent="1">
          <mxGeometry width="50" height="50" relative="1" as="geometry">
            <mxPoint x="180" y="615" as="sourcePoint" />
            <mxPoint x="230" y="615" as="targetPoint" />
          </mxGeometry>
        </mxCell>
        <mxCell id="1T-fKAIyL_KaxymxcAVF-49" value="Preempted" style="text;html=1;align=center;verticalAlign=middle;resizable=0;points=[];autosize=1;" vertex="1" parent="1">
          <mxGeometry x="580" y="665" width="70" height="20" as="geometry" />
        </mxCell>
        <mxCell id="1T-fKAIyL_KaxymxcAVF-50" value="" style="endArrow=classic;html=1;dashed=1;" edge="1" parent="1">
          <mxGeometry width="50" height="50" relative="1" as="geometry">
            <mxPoint x="150" y="660" as="sourcePoint" />
            <mxPoint x="150" y="280" as="targetPoint" />
          </mxGeometry>
        </mxCell>
        <mxCell id="1T-fKAIyL_KaxymxcAVF-51" value="High priority" style="text;html=1;align=center;verticalAlign=middle;resizable=0;points=[];autosize=1;" vertex="1" parent="1">
          <mxGeometry x="110" y="230" width="80" height="20" as="geometry" />
        </mxCell>
        <mxCell id="1T-fKAIyL_KaxymxcAVF-52" value="Real-time" style="text;html=1;align=center;verticalAlign=middle;resizable=0;points=[];autosize=1;" vertex="1" parent="1">
          <mxGeometry x="70" y="270" width="70" height="20" as="geometry" />
        </mxCell>
        <mxCell id="1T-fKAIyL_KaxymxcAVF-53" value="System" style="text;html=1;align=center;verticalAlign=middle;resizable=0;points=[];autosize=1;" vertex="1" parent="1">
          <mxGeometry x="75" y="380" width="60" height="20" as="geometry" />
        </mxCell>
        <mxCell id="1T-fKAIyL_KaxymxcAVF-54" value="Interactive" style="text;html=1;align=center;verticalAlign=middle;resizable=0;points=[];autosize=1;" vertex="1" parent="1">
          <mxGeometry x="70" y="490" width="70" height="20" as="geometry" />
        </mxCell>
        <mxCell id="1T-fKAIyL_KaxymxcAVF-55" value="Batch" style="text;html=1;align=center;verticalAlign=middle;resizable=0;points=[];autosize=1;" vertex="1" parent="1">
          <mxGeometry x="85" y="605" width="50" height="20" as="geometry" />
        </mxCell>
        <mxCell id="1T-fKAIyL_KaxymxcAVF-56" value="Low priority" style="text;html=1;align=center;verticalAlign=middle;resizable=0;points=[];autosize=1;" vertex="1" parent="1">
          <mxGeometry x="110" y="685" width="80" height="20" as="geometry" />
        </mxCell>
        <mxCell id="1T-fKAIyL_KaxymxcAVF-57" value="P" style="ellipse;whiteSpace=wrap;html=1;aspect=fixed;fillColor=#b1ddf0;strokeColor=#10739e;" vertex="1" parent="1">
          <mxGeometry x="595" y="365" width="50" height="50" as="geometry" />
        </mxCell>
      </root>
    </mxGraphModel>
  </diagram>
</mxfile>
